<?xml version="1.0" encoding="UTF-8" standalone="no"?>
<!DOCTYPE svg PUBLIC "-//W3C//DTD SVG 1.1//EN" "http://www.w3.org/Graphics/SVG/1.1/DTD/svg11.dtd">
<svg width="100%" height="100%" viewBox="0 0 770 109" version="1.1" xmlns="http://www.w3.org/2000/svg" xmlns:xlink="http://www.w3.org/1999/xlink" xml:space="preserve" xmlns:serif="http://www.serif.com/" style="fill-rule:evenodd;clip-rule:evenodd;stroke-linejoin:round;stroke-miterlimit:2;">
    <g transform="matrix(1,0,0,1,-575.207,-485.712)">
        <g transform="matrix(1,0,0,1,-15.7879,-29.1492)">
            <g transform="matrix(1.20977,0,0,1,-103.329,79.2333)">
                <path d="M759.838,487.756L759.838,470.764C759.858,470.764 759.878,470.764 759.898,470.764C766.722,470.764 772.733,472.3 777.931,475.372C783.129,478.444 787.136,482.764 789.953,488.332C792.77,493.9 794.179,500.284 794.179,507.484C794.179,514.876 792.77,521.332 789.953,526.852C787.136,532.372 783.149,536.644 777.991,539.668C772.833,542.692 766.802,544.204 759.898,544.204C759.878,544.204 759.858,544.204 759.838,544.204L759.838,527.212C759.858,527.212 759.878,527.212 759.898,527.212C764.739,527.212 768.587,525.412 771.444,521.812C774.301,518.212 775.729,513.436 775.729,507.484C775.729,501.34 774.321,496.516 771.503,493.012C768.686,489.508 764.818,487.756 759.898,487.756C759.878,487.756 759.858,487.756 759.838,487.756Z" style="fill:white;"/>
            </g>
            <g transform="matrix(1.20977,0,0,1,-168.036,79.2333)">
                <path d="M759.838,544.204C752.959,544.195 746.928,542.683 741.746,539.668C736.548,536.644 732.541,532.372 729.724,526.852C726.907,521.332 725.498,514.876 725.498,507.484C725.498,500.284 726.907,493.9 729.724,488.332C732.541,482.764 736.548,478.444 741.746,475.372C746.928,472.309 752.959,470.773 759.838,470.764L759.838,487.756C754.947,487.77 751.078,489.522 748.233,493.012C745.376,496.516 743.948,501.34 743.948,507.484C743.948,513.436 745.396,518.212 748.292,521.812C751.177,525.397 755.026,527.197 759.838,527.212L759.838,544.204Z" style="fill:white;"/>
            </g>
            <g transform="matrix(1.0207,0,0,1,-153.965,-237.153)">
                <rect x="892.154" y="787.15" width="14.737" height="16.663" style="fill:white;"/>
            </g>
            <g transform="matrix(1.0207,0,0,1,-134.247,-237.153)">
                <rect x="892.154" y="787.15" width="14.737" height="16.663" style="fill:white;"/>
            </g>
            <g transform="matrix(1.0207,0,0,1,-114.474,-237.153)">
                <rect x="892.154" y="787.15" width="14.737" height="16.663" style="fill:white;"/>
            </g>
            <g transform="matrix(1.0207,0,0,1,-153.965,-180.377)">
                <rect x="892.154" y="787.15" width="14.737" height="16.663" style="fill:white;"/>
            </g>
            <g transform="matrix(1.0207,0,0,1,-134.247,-180.377)">
                <rect x="892.154" y="787.15" width="14.737" height="16.663" style="fill:white;"/>
            </g>
            <g transform="matrix(1.0207,0,0,1,-114.474,-180.377)">
                <rect x="892.154" y="787.15" width="14.737" height="16.663" style="fill:white;"/>
            </g>
            <g transform="matrix(1.20977,0,0,1,-168.036,79.2333)">
                <path d="M654.794,544.204C649.715,544.204 644.676,543.628 639.677,542.476C634.678,541.324 630.591,539.788 627.417,537.868L627.417,518.572C631.622,521.068 635.987,522.94 640.51,524.188C645.033,525.436 649.358,526.06 653.484,526.06C658.087,526.06 661.579,525.1 663.959,523.18C666.34,521.26 667.53,518.572 667.53,515.116C667.53,512.62 666.935,510.508 665.745,508.78C664.554,507.052 662.828,505.492 660.567,504.1C658.305,502.708 654.833,500.86 650.152,498.556C642.375,494.716 636.741,490.42 633.249,485.668C629.758,480.916 628.012,475.036 628.012,468.028C628.012,462.364 629.282,457.348 631.821,452.98C634.36,448.612 637.931,445.228 642.534,442.828C647.136,440.428 652.453,439.228 658.484,439.228C663.404,439.228 667.768,439.708 671.577,440.668C675.386,441.628 679.116,443.116 682.766,445.132L682.766,463.852C675.783,459.628 668.8,457.516 661.817,457.516C657.373,457.516 653.881,458.452 651.342,460.324C648.803,462.196 647.533,464.86 647.533,468.316C647.533,470.812 648.128,472.876 649.318,474.508C650.509,476.14 652.175,477.58 654.318,478.828C656.46,480.076 659.952,481.9 664.792,484.3C670.426,487.18 674.831,489.94 678.005,492.58C681.179,495.22 683.52,498.34 685.028,501.94C686.535,505.54 687.289,509.98 687.289,515.26C687.289,524.38 684.571,531.484 679.136,536.572C673.7,541.66 665.586,544.204 654.794,544.204Z" style="fill:white;fill-rule:nonzero;"/>
            </g>
            <g transform="matrix(1.20977,0,0,1,-168.036,79.2333)">
                <rect x="697.407" y="435.628" width="17.974" height="106.416" style="fill:white;fill-rule:nonzero;"/>
            </g>
            <g transform="matrix(1.20977,0,0,1,-103.329,79.2333)">
                <path d="M794.179,472.924L812.152,472.924L822.627,516.124L832.864,472.924L847.862,472.924L858.217,516.124L868.573,472.924L886.547,472.924L867.621,542.044L851.314,542.044L840.363,499.132L829.412,542.044L813.105,542.044L794.179,472.924Z" style="fill:white;fill-rule:nonzero;"/>
            </g>
            <g transform="matrix(1.20977,0,0,1,-103.329,79.2333)">
                <path d="M902.854,459.676L878.572,459.676L878.572,441.388L945.229,441.388L945.229,459.676L920.947,459.676L920.947,542.044L902.854,542.044L902.854,459.676Z" style="fill:white;fill-rule:nonzero;"/>
            </g>
            <g transform="matrix(1.20977,0,0,1,-103.329,79.2333)">
                <path d="M964.631,544.204C956.854,544.204 951.022,541.636 947.133,536.5C943.245,531.364 941.301,524.524 941.301,515.98L941.301,472.924L959.274,472.924L959.274,513.676C959.274,522.7 962.726,527.212 969.63,527.212C972.646,527.212 975.463,526.348 978.081,524.62C980.7,522.892 982.882,520.3 984.628,516.844L984.628,472.924L1002.6,472.924L1002.6,542.044L985.223,542.044L985.223,533.692C982.684,537.244 979.609,539.884 975.998,541.612C972.388,543.34 968.599,544.204 964.631,544.204Z" style="fill:white;fill-rule:nonzero;"/>
            </g>
            <g transform="matrix(1.20977,0,0,1,-103.329,79.2333)">
                <path d="M1015.1,472.924L1032.48,472.924L1032.48,481.42C1035.1,477.868 1038.21,475.204 1041.82,473.428C1045.43,471.652 1049.22,470.764 1053.19,470.764C1060.97,470.764 1066.78,473.284 1070.63,478.324C1074.48,483.364 1076.4,490.156 1076.4,498.7L1076.4,542.044L1058.43,542.044L1058.43,501.148C1058.43,492.22 1055.02,487.756 1048.19,487.756C1045.17,487.756 1042.36,488.644 1039.74,490.42C1037.12,492.196 1034.9,494.812 1033.07,498.268L1033.07,542.044L1015.1,542.044L1015.1,472.924Z" style="fill:white;fill-rule:nonzero;"/>
            </g>
            <g transform="matrix(1.20977,0,0,1,-103.329,79.2333)">
                <path d="M1121.16,544.204C1110.21,544.204 1101.6,541.012 1095.33,534.628C1089.06,528.244 1085.92,519.292 1085.92,507.772C1085.92,496.348 1088.72,487.324 1094.32,480.7C1099.91,474.076 1107.9,470.764 1118.3,470.764C1125.12,470.764 1130.92,472.3 1135.68,475.372C1140.44,478.444 1144.05,482.692 1146.51,488.116C1148.97,493.54 1150.2,499.66 1150.2,506.476L1150.2,515.26L1103.06,515.26C1104.33,524.092 1111.16,528.508 1123.54,528.508C1127.19,528.508 1130.96,528.124 1134.85,527.356C1138.73,526.588 1142.11,525.532 1144.96,524.188L1144.96,539.452C1142.18,540.892 1138.61,542.044 1134.25,542.908C1129.88,543.772 1125.52,544.204 1121.16,544.204ZM1133.18,501.148C1132.94,496.54 1131.51,492.964 1128.89,490.42C1126.28,487.876 1122.66,486.604 1118.06,486.604C1113.54,486.604 1109.97,487.9 1107.35,490.492C1104.73,493.084 1103.3,496.636 1103.06,501.148L1133.18,501.148Z" style="fill:white;fill-rule:nonzero;"/>
            </g>
            <g transform="matrix(1.20977,0,0,1,-103.329,79.2333)">
                <path d="M1183.65,544.204C1179.36,544.204 1174.78,543.652 1169.9,542.548C1165.02,541.444 1161.19,539.884 1158.41,537.868L1158.41,520.876C1161.59,523.18 1165.4,525.052 1169.84,526.492C1174.28,527.932 1178.41,528.652 1182.22,528.652C1185.47,528.652 1187.85,528.316 1189.36,527.644C1190.87,526.972 1191.62,525.724 1191.62,523.9C1191.62,522.46 1191.19,521.284 1190.31,520.372C1189.44,519.46 1188.11,518.644 1186.33,517.924C1184.54,517.204 1181.58,516.124 1177.46,514.684C1172.62,512.956 1168.83,511.204 1166.09,509.428C1163.35,507.652 1161.29,505.42 1159.9,502.732C1158.51,500.044 1157.82,496.588 1157.82,492.364C1157.82,485.164 1160.18,479.764 1164.9,476.164C1169.62,472.564 1176.03,470.764 1184.12,470.764C1188.09,470.764 1192.2,471.268 1196.44,472.276C1200.69,473.284 1203.96,474.604 1206.26,476.236L1206.26,492.796C1203.96,490.972 1200.97,489.484 1197.28,488.332C1193.59,487.18 1190,486.604 1186.5,486.604C1183.25,486.604 1180.73,486.988 1178.95,487.756C1177.16,488.524 1176.27,489.964 1176.27,492.076C1176.27,493.9 1177.12,495.292 1178.83,496.252C1180.53,497.212 1183.73,498.412 1188.41,499.852L1190.79,500.572C1195.79,502.204 1199.68,504.004 1202.45,505.972C1205.23,507.94 1207.2,510.292 1208.35,513.028C1209.5,515.764 1210.07,519.196 1210.07,523.324C1210.07,529.66 1207.81,534.724 1203.29,538.516C1198.76,542.308 1192.22,544.204 1183.65,544.204Z" style="fill:white;fill-rule:nonzero;"/>
            </g>
        </g>
    </g>
</svg>
